<?xml version="1.0" encoding="UTF-8" standalone="no"?>
<svg
   xmlns:dc="http://purl.org/dc/elements/1.1/"
   xmlns:cc="http://creativecommons.org/ns#"
   xmlns:rdf="http://www.w3.org/1999/02/22-rdf-syntax-ns#"
   xmlns:svg="http://www.w3.org/2000/svg"
   xmlns="http://www.w3.org/2000/svg"
   xmlns:sodipodi="http://sodipodi.sourceforge.net/DTD/sodipodi-0.dtd"
   xmlns:inkscape="http://www.inkscape.org/namespaces/inkscape"
   width="278.91641"
   height="279.06094"
   id="svg2"
   version="1.1"
   inkscape:version="0.91 r13725"
   sodipodi:docname="ear.svg">
  <metadata
     id="metadata27">
    <rdf:RDF>
      <cc:Work
         rdf:about="">
        <dc:format>image/svg+xml</dc:format>
        <dc:type
           rdf:resource="http://purl.org/dc/dcmitype/StillImage" />
        <dc:title>ear</dc:title>
      </cc:Work>
    </rdf:RDF>
  </metadata>
  <defs
     id="defs25" />
  <sodipodi:namedview
     pagecolor="#ffffff"
     bordercolor="#666666"
     borderopacity="1"
     objecttolerance="10"
     gridtolerance="10"
     guidetolerance="10"
     inkscape:pageopacity="0"
     inkscape:pageshadow="2"
     inkscape:window-width="884"
     inkscape:window-height="557"
     id="namedview23"
     showgrid="false"
     fit-margin-top="0"
     fit-margin-left="0"
     fit-margin-right="0"
     fit-margin-bottom="0"
     inkscape:zoom="0.49166667"
     inkscape:cx="157.44341"
     inkscape:cy="94.231993"
     inkscape:window-x="0"
     inkscape:window-y="0"
     inkscape:window-maximized="0"
     inkscape:current-layer="layer3" />
  <title
     id="title4">ear</title>
  <g
     inkscape:groupmode="layer"
     id="layer3"
     inkscape:label="Layer 2"
     style="display:inline"
     transform="translate(-160.52269,-55.171062)">
    <g
       id="g3361"
       transform="matrix(1.0797945,0,0,0.99423878,-48.115581,8.6609222)"
       style="fill:#2c70ea;fill-opacity:1;stroke:none">
      <ellipse
         ry="140.33899"
         rx="129.15254"
         cy="187.11864"
         cx="322.37289"
         id="path3355"
         style="fill:#2c70ea;fill-opacity:1;fill-rule:evenodd;stroke:none;stroke-width:1px;stroke-linecap:butt;stroke-linejoin:miter;stroke-opacity:1" />
    </g>
  </g>
  <g
     inkscape:groupmode="layer"
     id="layer2"
     inkscape:label="Layer 1"
     transform="translate(-160.52269,-55.171062)">
    <g
       id="g6"
       transform="translate(211.52542,42.711864)">
      <title
         id="title8">Layer 1</title>
      <g
         id="layer1">
        <g
           id="g9193">
          <path
             id="path9197"
             d="m 96.621544,108.95844 c 14.595286,2.10465 25.439426,15.17364 28.798226,28.95271 5.32152,18.14357 0.86053,39.29458 -12.97414,52.58093 -6.99419,7.85156 -9.04979,19.1111 -11.98243,29.17592 -2.759678,6.41031 -12.071179,8.15341 -18.308834,6.31421 -8.453102,-2.1145 -17.731522,-8.66556 -23.402889,-15.25473 -3.754578,-4.54238 -1.246082,-8.47203 -0.514664,-13.89148 l 0.08475,-0.0926 c -0.263649,4.44808 0.844467,9.44091 3.561836,12.46477 6.516037,7.73874 16.483665,12.81259 26.719353,12.43221 6.257294,-1.97724 7.436195,-9.12883 9.523743,-14.46309 4.495135,-11.50672 11.591815,-20.93842 18.370425,-30.99266 8.69055,-17.27591 7.86142,-36.06755 -4.61588,-51.17745 -4.45051,-5.11382 -9.06906,-8.30396 -15.905744,-9.11025 -14.389214,-1.72496 -28.758804,4.50858 -32.428165,17.94802 -0.09267,0.70889 -0.240124,1.39531 -0.336853,2.10275 l -1.687748,-1.12588 c 0.260296,-1.52223 1.417316,-3.03432 1.690891,-4.53101 2.590092,-15.58677 19.679226,-23.24151 33.408123,-21.33239 z"
             inkscape:connector-curvature="0"
             style="fill:#000000;fill-rule:evenodd;stroke-width:1px" />
          <path
             id="path9199"
             d="m 95.757813,122.45826 c 5.485437,0.0289 8.972477,5.07655 11.326657,9.41039 2.71206,4.8145 4.78926,9.96042 6.52093,15.20001 -4.76807,-5.06816 -4.79471,-4.60557 -6.17551,-7.30345 -2.15379,-5.01568 -4.93797,-7.10336 -9.300107,-10.56297 -3.450249,-1.39059 -10.935295,3.72775 -8.182022,1.03969 -6.054283,5.95295 -8.735374,11.87455 -11.402695,20.28607 -1.164986,6.29639 -0.981682,11.10815 1.696983,16.31488 2.535172,4.48193 5.398849,9.90816 3.384918,15.11554 -1.917969,3.40811 -6.340431,5.24393 -6.838425,9.44823 -1.923126,4.02301 4.375725,7.92721 7.259529,4.66427 12.639458,-8.52327 19.723039,-22.13368 12.494514,-35.94735 -0.689339,-3.16813 -3.538254,-9.47812 -5.698502,-12.88913 1.983376,1.79658 8.507309,9.69746 10.174247,12.05802 5.54167,9.70786 3.04623,19.63726 -1.945449,29.48478 -3.361214,6.95585 -8.966316,12.69729 -16.602127,14.88231 -4.53231,0.68542 -9.841545,-7.10474 -9.031967,-11.49003 0.352249,-4.37999 3.22541,-8.13891 6.642891,-10.70129 2.332169,-3.5948 -0.01555,-7.7919 -1.667343,-11.13501 -3.009659,-6.17071 -8.394257,-11.95224 -7.611885,-19.29674 1.121422,-8.09512 7.173203,-11.00442 12.777901,-16.38295 3.512794,-3.10414 6.750641,-9.97997 11.064575,-12.0045 0.364037,-0.0974 0.736916,-0.16326 1.112885,-0.19077 z"
             inkscape:connector-curvature="0"
             style="fill:#000000;fill-rule:evenodd;stroke-width:1px" />
        </g>
      </g>
      <line
         id="svg_1"
         y2="92"
         x2="84"
         y1="31"
         x1="109"
         style="fill:none;stroke:#000000;stroke-width:5" />
      <line
         id="svg_2"
         y2="98"
         x2="126"
         y1="52"
         x1="157"
         style="fill:none;stroke:#000000;stroke-width:5" />
      <line
         id="svg_3"
         y2="120"
         x2="140"
         y1="102"
         x1="193"
         style="fill:none;stroke:#000000;stroke-width:5" />
      <line
         id="svg_4"
         y2="158"
         x2="150"
         y1="157"
         x1="202"
         style="fill:none;stroke:#000000;stroke-width:5" />
      <line
         id="svg_5"
         y2="212"
         x2="193"
         y1="191"
         x1="145"
         style="fill:none;stroke:#000000;stroke-width:5" />
      <line
         id="svg_6"
         y2="247"
         x2="162"
         y1="210"
         x1="127"
         style="fill:none;stroke:#000000;stroke-width:5" />
      <line
         id="svg_7"
         y2="266"
         x2="115"
         y1="227"
         x1="103"
         style="fill:none;stroke:#000000;stroke-width:5" />
    </g>
  </g>
</svg>
