<?xml version="1.0" encoding="UTF-8" standalone="no"?>
<!-- Created with Inkscape (http://www.inkscape.org/) -->

<svg
   xmlns:dc="http://purl.org/dc/elements/1.1/"
   xmlns:cc="http://creativecommons.org/ns#"
   xmlns:rdf="http://www.w3.org/1999/02/22-rdf-syntax-ns#"
   xmlns:svg="http://www.w3.org/2000/svg"
   xmlns="http://www.w3.org/2000/svg"
   xmlns:sodipodi="http://sodipodi.sourceforge.net/DTD/sodipodi-0.dtd"
   xmlns:inkscape="http://www.inkscape.org/namespaces/inkscape"
   id="svg3794"
   version="1.1"
   inkscape:version="0.91 r13725"
   xml:space="preserve"
   width="500"
   height="500"
   viewBox="0 0 500 500"
   sodipodi:docname="recording.ai.svg"><metadata
     id="metadata3800"><rdf:RDF><cc:Work
         rdf:about=""><dc:format>image/svg+xml</dc:format><dc:type
           rdf:resource="http://purl.org/dc/dcmitype/StillImage" /><dc:title></dc:title></cc:Work></rdf:RDF></metadata><defs
     id="defs3798"><inkscape:perspective
       sodipodi:type="inkscape:persp3d"
       inkscape:vp_x="0 : 500 : 1"
       inkscape:vp_y="0 : 1000 : 0"
       inkscape:vp_z="1000 : 500 : 1"
       inkscape:persp3d-origin="500 : 333.33333 : 1"
       id="perspective4065" /><clipPath
       clipPathUnits="userSpaceOnUse"
       id="clipPath3808"><path
         d="M 0,0 800,0 800,800 0,800 0,0 Z"
         id="path3810"
         inkscape:connector-curvature="0" /></clipPath><radialGradient
       fx="0"
       fy="0"
       cx="0"
       cy="0"
       r="1"
       gradientUnits="userSpaceOnUse"
       gradientTransform="matrix(400,0,0,-400,400,400)"
       spreadMethod="pad"
       id="radialGradient3816"><stop
         style="stop-opacity:1;stop-color:#ffffff"
         offset="0"
         id="stop3818" /><stop
         style="stop-opacity:1;stop-color:#e6e7e8"
         offset="1"
         id="stop3820" /></radialGradient><clipPath
       clipPathUnits="userSpaceOnUse"
       id="clipPath3828"><path
         d="M 0,800 800,800 800,0 0,0 0,800 Z"
         id="path3830"
         inkscape:connector-curvature="0" /></clipPath><clipPath
       clipPathUnits="userSpaceOnUse"
       id="clipPath3852"><path
         d="M 0,800 800,800 800,0 0,0 0,800 Z"
         id="path3854"
         inkscape:connector-curvature="0" /></clipPath></defs><sodipodi:namedview
     pagecolor="#ffffff"
     bordercolor="#666666"
     borderopacity="1"
     objecttolerance="10"
     gridtolerance="10"
     guidetolerance="10"
     inkscape:pageopacity="0"
     inkscape:pageshadow="2"
     inkscape:window-width="1263"
     inkscape:window-height="750"
     id="namedview3796"
     showgrid="false"
     inkscape:zoom="0.40697924"
     inkscape:cx="61.233404"
     inkscape:cy="159.28679"
     inkscape:window-x="0"
     inkscape:window-y="0"
     inkscape:window-maximized="0"
     inkscape:current-layer="svg3794"
     fit-margin-top="0"
     fit-margin-left="0"
     fit-margin-right="0"
     fit-margin-bottom="0" /><g
     inkscape:groupmode="layer"
     id="layer2"
     inkscape:label="back"
     transform="translate(-5.4732413,-5.546453)"><circle
       style="fill:#2ebf00;fill-opacity:1;fill-rule:evenodd;stroke:#000000;stroke-width:1.23674488px;stroke-linecap:butt;stroke-linejoin:miter;stroke-opacity:1"
       id="path4063"
       cx="255.47324"
       cy="255.54645"
       r="249.38162" /></g><g
     inkscape:groupmode="layer"
     id="layer1"
     inkscape:label="new"
     style="display:inline"
     transform="translate(-5.4732413,-5.546453)"><path
       d="m 288.08861,136.75045 c -5.54,0 -10.03,-4.49125 -10.03,-10.03125 0,-5.54 4.49,-10.03125 10.03,-10.03125 5.54,0 10.03125,4.49125 10.03125,10.03125 0,5.54 -4.49125,10.03125 -10.03125,10.03125 m 0,31.34875 c -5.54,0 -10.03,-4.49125 -10.03,-10.03 0,-5.54125 4.49,-10.0325 10.03,-10.0325 5.54,0 10.03125,4.49125 10.03125,10.0325 0,5.53875 -4.49125,10.03 -10.03125,10.03 m 0,31.35125 c -5.54,0 -10.03,-4.4925 -10.03,-10.03125 0,-5.54 4.49,-10.0325 10.03,-10.0325 5.54,0 10.03125,4.4925 10.03125,10.0325 0,5.53875 -4.49125,10.03125 -10.03125,10.03125 m -33.42125,-62.7 c -5.54,0 -10.0325,-4.49125 -10.0325,-10.03125 0,-5.54 4.4925,-10.03125 10.0325,-10.03125 5.53875,0 10.03,4.49125 10.03,10.03125 0,5.54 -4.49125,10.03125 -10.03,10.03125 m 0,31.34875 c -5.54,0 -10.0325,-4.49125 -10.0325,-10.03 0,-5.54125 4.4925,-10.0325 10.0325,-10.0325 5.53875,0 10.03,4.49125 10.03,10.0325 0,5.53875 -4.49125,10.03 -10.03,10.03 m 0,31.35125 c -5.54,0 -10.0325,-4.4925 -10.0325,-10.03125 0,-5.54 4.4925,-10.0325 10.0325,-10.0325 5.53875,0 10.03,4.4925 10.03,10.0325 0,5.53875 -4.49125,10.03125 -10.03,10.03125 m -33.42375,-62.7 c -5.53875,0 -10.03125,-4.49125 -10.03125,-10.03125 0,-5.54 4.4925,-10.03125 10.03125,-10.03125 5.54,0 10.0325,4.49125 10.0325,10.03125 0,5.54 -4.4925,10.03125 -10.0325,10.03125 m 0,31.34875 c -5.53875,0 -10.03125,-4.49125 -10.03125,-10.03 0,-5.54125 4.4925,-10.0325 10.03125,-10.0325 5.54,0 10.0325,4.49125 10.0325,10.0325 0,5.53875 -4.4925,10.03 -10.0325,10.03 m 0,31.35125 c -5.53875,0 -10.03125,-4.4925 -10.03125,-10.03125 0,-5.54 4.4925,-10.0325 10.03125,-10.0325 5.54,0 10.0325,4.4925 10.0325,10.0325 0,5.53875 -4.4925,10.03125 -10.0325,10.03125 M 254.29486,83.700449 c -35.2425,0 -63.8125,28.567501 -63.8125,63.810001 l 0,66.98125 127.625,0 0,-66.98125 c 0,-35.2425 -28.57125,-63.810001 -63.8125,-63.810001"
       style="fill:#e90a14;fill-opacity:1;fill-rule:nonzero;stroke:none"
       id="path3842"
       inkscape:connector-curvature="0" /><path
       d="m 190.48249,235.6017 0,2.86625 c 0,35.245 28.56875,63.81375 63.8125,63.81375 35.24125,0 63.8125,-28.56875 63.8125,-63.81375 l 0,-2.86625 -127.625,0 z"
       style="display:inline;fill:#e90a14;fill-opacity:1;fill-rule:nonzero;stroke:none"
       id="path3870"
       inkscape:connector-curvature="0" /><path
       d="m 318.10749,389.90508 -127.62875,0 0,31.295 127.62875,0 0,-31.295 z"
       style="display:inline;fill:#e90a14;fill-opacity:1;fill-rule:nonzero;stroke:none"
       id="path3864"
       inkscape:connector-curvature="0" /><path
       d="m 254.29474,351.56858 c -59.35,0 -107.63875,-47.27 -107.63875,-105.37125 l 0,-23.51375 c 0,-8.64125 7.005,-15.6475 15.6475,-15.6475 8.64125,0 15.64875,7.00625 15.64875,15.6475 l 0,23.51375 c 0,40.84625 34.24625,74.07625 76.3425,74.07625 42.0975,0 76.34125,-33.23 76.34125,-74.07625 l 0,-23.51375 c 0,-8.64125 7.0075,-15.6475 15.65,-15.6475 8.64,0 15.64625,7.00625 15.64625,15.6475 l 0,23.51375 c 0,58.10125 -48.285,105.37125 -107.6375,105.37125"
       style="display:inline;fill:#e90a14;fill-opacity:1;fill-rule:nonzero;stroke:none"
       id="path3862"
       inkscape:connector-curvature="0" /><path
       d="m 269.80374,390.04383 -31.01875,0 0,-66.62125 31.01875,0 0,66.62125 z"
       style="display:inline;fill:#e90a14;fill-opacity:1;fill-rule:nonzero;stroke:none"
       id="path3866"
       inkscape:connector-curvature="0" /></g></svg>